# xmcd
# 
# Track frame offsets:
#     150
#     20302
#     37050
#     56470
#     71587
#     90285
#     108065
#     125462
#     147820
#     165882
# 
# Disc length: 2520
# 
# Revision: 5
# Processed by: cddbd v1.5.2PL0 Copyright (c) Steve Scherf et al.
# Submitted via: fre:ac v1.0.17
# 
DISCID=7209d60a
DTITLE=松田聖子 - Windy Shadow
DYEAR=1984
DGENRE=JPop
TTITLE0=マンハッタンでブレックファスト
TTITLE1=薔薇とピストル
TTITLE2=今夜はソフィストケート
TTITLE3=そよ風のフェイント
TTITLE4=ハートのイアリング
TTITLE5=Dancing Cafe
TTITLE6=MAUI
TTITLE7=銀色のオートバイ
TTITLE8=ピンクのモーツァルト
TTITLE9=Star
EXTD=YEAR: 1984
EXTT0=
EXTT1=
EXTT2=
EXTT3=
EXTT4=
EXTT5=
EXTT6=
EXTT7=
EXTT8=
EXTT9=
PLAYORDER=
